<svg width="25" height="25" viewBox="0 0 23 20" fill="none" xmlns="http://www.w3.org/2000/svg">
<path d="M22.964 10.0001C22.964 9.82682 22.8925 9.65471 22.7522 9.53132L12.1624 0.156316C12.0446 0.0525659 11.8969 0.000183105 11.7491 0.000183105C11.6013 0.000183105 11.4523 0.0525659 11.3351 0.156316L0.745257 9.53132C0.570687 9.65632 0.499207 9.82819 0.499207 10.0001C0.499207 10.3485 0.781941 10.6247 1.12577 10.6247C1.27253 10.6247 1.41952 10.5734 1.53749 10.4687L2.99921 9.17885L2.99942 16.8742C2.99955 18.5977 4.40151 20.0001 6.12416 20.0001H17.339C19.0621 20.0001 20.4289 18.5989 20.4289 16.9102L20.4289 9.21491L21.9601 10.4688C22.0812 10.5743 22.2257 10.6251 22.339 10.6251C22.714 10.6251 22.964 10.3477 22.964 10.0001ZM19.214 8.12507V16.8751C19.214 17.909 18.373 18.7501 17.3742 18.7501H6.12416C5.09018 18.7501 4.28432 17.909 4.28432 16.8751V8.12507C4.28432 8.11034 4.27692 8.09806 4.27593 8.08358L11.7492 1.45866L19.257 8.08366C19.257 8.09772 19.214 8.10944 19.214 8.12507Z" fill="#6B6C72"/>
</svg>
