<svg width="25" height="25" viewBox="0 0 15 20" fill="none" xmlns="http://www.w3.org/2000/svg">
<path d="M14.2695 4.89441L10.1094 0.734257C9.63672 0.263241 9.00391 -0.000118164 8.33984 -0.000118164L2.5 -0.00012207C1.11914 -0.00012207 0 1.11902 0 2.49988L0.000253906 17.4999C0.000253906 18.8807 1.11939 19.9999 2.50025 19.9999H12.5C13.8809 19.9999 15 18.8807 15 17.4999V6.66003C15 5.99598 14.7383 5.36316 14.2695 4.89441ZM8.75 1.33113C8.92488 1.3923 9.08852 1.48137 9.22344 1.61625L13.3836 5.77641C13.5195 5.91004 13.6094 6.0741 13.668 6.24988H9.375C9.03125 6.24988 8.75 5.96863 8.75 5.62488V1.33113ZM13.75 17.4999C13.75 18.1889 13.1891 18.7499 12.5 18.7499H2.5C1.81094 18.7499 1.25 18.1889 1.25 17.4999V2.49988C1.25 1.81082 1.81094 1.24988 2.5 1.24988H7.5V5.62488C7.5 6.66004 8.33984 7.49988 9.375 7.49988H13.75V17.4999ZM3.75 10.6249C3.75 10.9686 4.03125 11.2499 4.375 11.2499H10.625C10.9688 11.2499 11.25 10.9686 11.25 10.6249C11.25 10.2811 10.9688 9.99988 10.625 9.99988H4.375C4.03125 9.99988 3.75 10.2811 3.75 10.6249ZM10.625 12.4999H4.375C4.03125 12.4999 3.75 12.7811 3.75 13.1249C3.75 13.4686 4.03125 13.7499 4.375 13.7499H10.625C10.9702 13.7499 11.25 13.47 11.25 13.1249C11.25 12.7797 10.9688 12.4999 10.625 12.4999ZM10.625 14.9999H4.375C4.03125 14.9999 3.75 15.2811 3.75 15.6249C3.75 15.9686 4.03125 16.2499 4.375 16.2499H10.625C10.9702 16.2499 11.25 15.97 11.25 15.6249C11.25 15.2797 10.9688 14.9999 10.625 14.9999Z" fill="#00C614"/>
</svg>
