<svg width="25" height="25" viewBox="0 0 18 20" fill="none" xmlns="http://www.w3.org/2000/svg">
<path d="M4.375 12.5H13.125C13.4702 12.5 13.75 12.2202 13.75 11.875C13.75 11.5312 13.4688 11.25 13.125 11.25H4.375C4.03125 11.25 3.75 11.5312 3.75 11.875C3.75 12.2188 4.03125 12.5 4.375 12.5ZM4.375 8.75H13.125C13.4688 8.75 13.75 8.46875 13.75 8.125C13.75 7.78125 13.4688 7.5 13.125 7.5H4.375C4.03125 7.5 3.75 7.78125 3.75 8.125C3.75 8.46875 4.03125 8.75 4.375 8.75ZM4.375 16.25H9.375C9.72016 16.25 10 15.9702 10 15.625C10 15.2798 9.72016 15 9.375 15H4.375C4.03125 15 3.75 15.2812 3.75 15.625C3.75 15.9688 4.03125 16.25 4.375 16.25ZM15 0H2.5C1.11914 0 0 1.11914 0 2.5V17.5C0 18.8809 1.11914 20 2.5 20H15C16.3809 20 17.5 18.8809 17.5 17.5V2.5C17.5 1.11914 16.3789 0 15 0ZM16.25 17.5C16.25 18.1891 15.6891 18.75 15 18.75H2.5C1.81094 18.75 1.25 18.1891 1.25 17.5V5H16.25V17.5ZM16.25 3.75H1.25V2.5C1.25 1.81094 1.81094 1.25 2.5 1.25H15C15.6891 1.25 16.25 1.81094 16.25 2.5V3.75Z" fill="#6B6C72"/>
</svg>
