<svg width="25" height="25" viewBox="0 0 20 20" fill="none" xmlns="http://www.w3.org/2000/svg">
<path d="M9.9653 20C7.77584 20 6.99694 19.5574 6.99694 18.5961V17.0508C6.40436 16.8018 5.85045 16.4832 5.34225 16.0973L4.0024 16.8699C3.8219 16.9755 3.61272 17.0267 3.4024 17.0267C1.96842 17.0267 0.423889 13.3989 0.423889 12.7845C0.423889 12.3607 0.650686 11.9509 1.03756 11.7271L2.37233 10.9568C2.36451 10.6289 2.34381 10.3125 2.34381 9.96484C2.34381 9.61719 2.36457 9.33477 2.40729 9.00898L1.07155 8.27344C0.685217 8.05078 0.458655 7.64062 0.458655 7.21484C0.458655 6.72344 1.94225 2.96875 3.43522 2.96875C3.64682 2.96875 3.85787 3.02102 4.04147 3.12934L5.37545 3.90156C5.88326 3.51602 6.43795 3.19727 6.99655 2.94805V1.40273C6.99655 0.169336 8.42623 0 10.0005 0C11.5516 0 12.934 0.159492 12.934 1.40273V2.94805C13.5266 3.19707 14.0805 3.51562 14.5887 3.90156L15.9286 3.12891C16.1091 3.02332 16.3185 2.97215 16.529 2.97215C17.9536 2.97215 19.5071 6.58738 19.5071 7.21434C19.5071 7.63816 19.2803 8.04793 18.8934 8.27176L17.5587 9.04207C17.6014 9.36801 17.6221 9.68426 17.6221 9.99793C17.6221 10.3116 17.6014 10.628 17.5587 10.9538L18.8942 11.7253C19.2807 11.948 19.5075 12.3577 19.5075 12.7819C19.5075 13.2737 18.0239 17.028 16.5305 17.028C16.3188 17.028 16.1075 16.9757 15.9247 16.8674L14.5891 16.0971C14.0805 16.4829 13.527 16.8014 12.9344 17.0506V18.5959C12.9692 19.5547 12.1919 20 9.9653 20ZM5.50436 14.5781C6.90748 15.782 7.54889 15.9203 8.27975 16.1797V18.5957C8.83092 18.6873 9.40553 18.7413 9.98912 18.7413C10.5731 18.7413 11.1661 18.6873 11.7544 18.5627L11.7171 16.1799C12.3449 15.9572 13.0913 15.7807 14.4925 14.5784L16.5867 15.7881C17.3202 14.9264 17.9058 13.9143 18.2816 12.7971L16.2136 11.6034C16.3208 11.0178 16.4034 10.61 16.4034 10.0772C16.4034 9.64945 16.3501 9.14086 16.2136 8.39516L18.3019 7.19008C17.9179 6.10609 17.3285 5.08187 16.5402 4.1932L14.4921 5.42016C13.089 4.21625 12.4476 4.07797 11.7167 3.81859V1.40273C11.1656 1.31117 10.591 1.25715 10.0074 1.25715C9.42337 1.25715 8.83041 1.31117 8.24212 1.4357L8.27936 3.81852C7.6528 4.04297 6.9067 4.18359 5.50436 5.42188L3.41178 4.21094C2.66998 5.08242 2.08053 6.10664 1.70514 7.23711L3.78483 8.3957C3.6778 8.98047 3.59498 9.39062 3.59498 9.88672C3.59498 10.3145 3.64826 10.823 3.78479 11.5688L1.69651 12.7738C2.08045 13.8578 2.66994 14.882 3.45823 15.7707L5.50436 14.5781ZM10.0005 13.7148C7.93248 13.7148 6.25045 12.0328 6.25045 9.96484C6.25045 7.89688 7.93405 6.21484 10.0005 6.21484C12.0669 6.21484 13.7505 7.89688 13.7505 9.96484C13.7505 12.0328 12.0669 13.7148 10.0005 13.7148ZM10.0005 7.46484C8.62155 7.46484 7.50045 8.58672 7.50045 9.96484C7.50045 11.343 8.62155 12.4648 10.0005 12.4648C11.3794 12.4648 12.5005 11.343 12.5005 9.96484C12.5005 8.58672 11.3794 7.46484 10.0005 7.46484Z" fill="#6B6C72"/>
</svg>
