<svg width="15" height="15" viewBox="0 0 11 12" fill="none" xmlns="http://www.w3.org/2000/svg">
<path d="M10.1978 7.14052L5.61445 11.3072C5.53372 11.3801 5.43476 11.4166 5.3332 11.4166C5.23164 11.4166 5.13219 11.3808 5.05273 11.3083L0.4694 7.14167C0.299426 6.98688 0.286822 6.72386 0.441431 6.55459C0.596457 6.38287 0.860441 6.37229 1.03023 6.5261L4.91654 10.0572V0.583232C4.91654 0.352919 5.10289 0.190002 5.30976 0.190002C5.51664 0.190002 5.74987 0.353023 5.74987 0.583232V10.0572L9.63529 6.52334C9.80497 6.36953 10.0691 6.38011 10.2241 6.55183C10.3801 6.72386 10.3671 6.98688 10.1978 7.14052Z" fill="#3E3F48"/>
</svg>
